# xmcd
#
# Track frame offsets: 
#        150
#        15436
#        30697
#        45949
#        63684
#        77981
#        94267
#        109196
#        123775
#        143141
#        159540
#        177304
#        195188
#        211777
#        226852
#        239815
#        256025
#
# Disc length: 3626 seconds
#
# Revision: 0
# Processed by: cddbd v1.5.2PL0 Copyright (c) Steve Scherf et al.
# Submitted via: ExactAudioCopy v1.0b3
#
DISCID=d80e2811
DTITLE=Various Artist - Was Geht Ab?! - Wir Tanzen Deutsch Vol. 3 - CD 2
DYEAR=1900
DGENRE=
TTITLE0=Darius and Finlay and Shaun Baker - Zeig Mir 10 (Darius and Finlay V
TTITLE0=ideo Mix)
TTITLE1=Akustikrausch - Ohrbassmus (Original Radio Edit)
TTITLE2=Raketenschall - Heute Nacht (Radio Mix)
TTITLE3=Bangboy - Das Ist Party (Marc Kiss Radio Edit)
TTITLE4=Discofreunde Mit Korky One and Eismann - Die Welt Feiert (Marc K
TTITLE4=iss Remix)
TTITLE5=GMR Clan Vs. Blumentopf - Wir Geben Gas (Popmuschi Edit)
TTITLE6=DJ Attila and Engel B. - Abdrehn, Abdrehn
TTITLE7=Kris Kristall - Wenn Ein Mädchen Tanzen Will
TTITLE8=RobKay Feat. David Posor - Keine Wie Du (Radio Edit)
TTITLE9=Plastik Bass Feat. Oliver Kobs - Abgehn (Original Edit)
TTITLE10=Elastique V. Feat. Little-H - Drecksau 2010 (Elastique V. Clu
TTITLE10=b Edit)
TTITLE11=Phildeluxe Feat. Tha Groove Junkeez - Hip Hurra (Becks Electr
TTITLE11=o Remix Edit)
TTITLE12=Ziggy X - Geschwindigkeitsrausch (Single Mix)
TTITLE13=Chris Tuxi - Hallo DJ (Mach Mal Laut)
TTITLE14=Die Brandung - Die Party Geht Ab (Sonic Base Fussball Mischun
TTITLE14=g)
TTITLE15=Hepatitis Blau - Wir Sind Blau (Radio Version)
TTITLE16=Conny Dachs - Kommt In Die Dachs-Armee
EXTD=
EXTT0=
EXTT1=
EXTT2=
EXTT3=
EXTT4=
EXTT5=
EXTT6=
EXTT7=
EXTT8=
EXTT9=
EXTT10=
EXTT11=
EXTT12=
EXTT13=
EXTT14=
EXTT15=
EXTT16=
PLAYORDER=
